<svg xmlns="http://www.w3.org/2000/svg" viewBox="0 0 512 512" width="200" height="200">
  <!-- Fondo -->
  <rect width="512" height="512" fill="#ffffff"/>
  
  <!-- Icono de blockchain -->
  <path d="M184.757 58.628h-73.036c-7.742 0-14.036 6.294-14.036 14.036v65.253c0 7.742 6.294 14.036 14.036 14.036h73.036
  c7.742 0 14.036-6.294 14.036-14.036V72.664C198.793 64.922 192.499 58.628 184.757 58.628z" fill="#3d75ff"/>
  <path d="M184.757 145.917h-73.036c-7.742 0-14.036 6.294-14.036 14.036v65.253c0 7.742 6.294 14.036 14.036 14.036h73.036
  c7.742 0 14.036-6.294 14.036-14.036v-65.253C198.793 152.211 192.499 145.917 184.757 145.917z" fill="#3d75ff"/>
  <path d="M256 202.895h-73.036c-7.742 0-14.036 6.294-14.036 14.036v65.253c0 7.742 6.294 14.036 14.036 14.036H256
  c7.742 0 14.036-6.294 14.036-14.036v-65.253C270.036 209.189 263.742 202.895 256 202.895z" fill="#3d75ff"/>
  <path d="M256 290.184h-73.036c-7.742 0-14.036 6.294-14.036 14.036v65.253c0 7.742 6.294 14.036 14.036 14.036H256
  c7.742 0 14.036-6.294 14.036-14.036v-65.253C270.036 296.478 263.742 290.184 256 290.184z" fill="#3d75ff"/>
  <path d="M432.056 259.692h-36.518l-20.744-20.744l-20.745 20.744h-36.518c-11.497 0-20.865 9.368-20.865 20.865v93.865
  c0 11.497 9.368 20.865 20.865 20.865h27.744v20.744c0 11.497 9.368 20.865 20.865 20.865h36.518
  c11.497 0 20.865-9.368 20.865-20.865v-20.744h27.744c11.497 0 20.865-9.368 20.865-20.865v-93.865
  C452.922 269.06 443.553 259.692 432.056 259.692zM425.318 346.107h-55.865v-27.744h55.865V346.107z M441.922 289.649
  c0 3.646-2.967 6.613-6.613 6.613h-6.613v-20.865h-48.692v20.865h-6.613c-3.646 0-6.613-2.967-6.613-6.613v-20.744h-27.744
  c-3.646 0-6.613-2.967-6.613-6.613v-93.865c0-3.646 2.967-6.613 6.613-6.613h36.518l20.745 20.744l20.744-20.744h36.518
  c3.646 0 6.613 2.967 6.613 6.613v93.865c0 3.646-2.967 6.613-6.613 6.613H441.922V289.649z" fill="#3d75ff"/>
  
  <!-- Icono de taza de café -->
  <path d="M371.79,343.993c-2.356,0-4.287,1.916-4.287,4.287v33.155c0,2.366,1.916,4.287,4.287,4.287h53.059
  c2.366,0,4.287-1.92,4.287-4.287v-33.155c0-2.371-1.92-4.287-4.287-4.287H371.79z M396.818,317.23h6.078v11.494h-6.078V317.23z
   M414.203,297.219l-4.925,5.382l4.895,5.375c0.822-0.822,1.726-1.576,2.642-2.252c7.709-6.442,12.896-16.189,12.896-26.948
  c0-19.49-15.893-35.377-35.377-35.377s-35.377,15.893-35.377,35.377c0,10.758,5.187,20.506,12.896,26.948
  c0.916,0.676,1.82,1.43,2.642,2.252l4.895-5.375l-4.925-5.382c-1.14,1.144-2.258,2.316-3.352,3.518
  c-10.467,11.465-16.886,26.39-16.886,42.658c0,0.006,0,0.013,0,0.019v14.566c0,3.333,2.715,6.051,6.051,6.051h37.146
  c3.335,0,6.051-2.717,6.051-6.051v-14.566c0-0.006,0-0.013,0-0.019C431.088,323.609,424.67,308.684,414.203,297.219z
   M388.009,386.78h-9.248c0.676,4.037,4.102,7.114,8.252,7.114c4.155,0,7.573-3.074,8.25-7.114H388.009z M402.131,418.862
  h-27.73v-6.051h27.73V418.862z M417.29,377.294c-1.725,1.731-3.774,3.009-6.048,3.832v-20.73c0-5.18-4.22-9.398-9.398-9.398
  c-5.182,0-9.398,4.218-9.398,9.398v20.73c-2.274-0.823-4.323-2.101-6.048-3.832c-8.774-8.778-14.229-20.988-14.229-34.426
  c0-0.006,0-0.013,0-0.019v-14.566c0-7.062,2.777-13.751,7.845-18.821c5.07-5.074,11.759-7.846,18.821-7.846s13.751,2.771,18.821,7.846
  c5.074,5.07,7.846,11.759,7.846,18.821v14.566C431.519,356.308,425.064,368.516,417.29,377.294z" fill="#8d6e63"/>
</svg>
